<mxfile host="app.diagrams.net" modified="2021-03-16T13:28:25.051Z" agent="5.0 (Windows)" etag="xHIGS0Usa-98FrCQWQFu" version="14.4.8" type="github">
  <diagram id="CkIHglHdtgA-dPwqu3pV" name="Page-1">
    <mxGraphModel dx="1422" dy="1904" grid="1" gridSize="10" guides="1" tooltips="1" connect="1" arrows="1" fold="1" page="1" pageScale="1" pageWidth="827" pageHeight="1169" math="0" shadow="0">
      <root>
        <mxCell id="0" />
        <mxCell id="1" parent="0" />
        <mxCell id="BE-PEi-hic5o3liknW6_-65" value="" style="html=1;points=[];perimeter=orthogonalPerimeter;" parent="1" vertex="1">
          <mxGeometry x="545" y="-840" width="10" height="50" as="geometry" />
        </mxCell>
        <mxCell id="BE-PEi-hic5o3liknW6_-1" value="&lt;div&gt;Installateur&lt;/div&gt;&lt;div&gt;&lt;br&gt;&lt;/div&gt;" style="shape=umlActor;verticalLabelPosition=bottom;verticalAlign=top;html=1;outlineConnect=0;" parent="1" vertex="1">
          <mxGeometry x="50" y="-1150" width="30" height="60" as="geometry" />
        </mxCell>
        <mxCell id="BE-PEi-hic5o3liknW6_-4" style="edgeStyle=orthogonalEdgeStyle;rounded=0;orthogonalLoop=1;jettySize=auto;html=1;" parent="1" source="BE-PEi-hic5o3liknW6_-3" edge="1">
          <mxGeometry relative="1" as="geometry">
            <mxPoint x="65" y="-1070" as="targetPoint" />
          </mxGeometry>
        </mxCell>
        <mxCell id="BE-PEi-hic5o3liknW6_-3" value="" style="html=1;points=[];perimeter=orthogonalPerimeter;" parent="1" vertex="1">
          <mxGeometry x="60" y="-1050" width="10" height="610" as="geometry" />
        </mxCell>
        <mxCell id="BE-PEi-hic5o3liknW6_-5" value="" style="endArrow=classic;html=1;exitX=1.2;exitY=0.016;exitDx=0;exitDy=0;exitPerimeter=0;" parent="1" source="BE-PEi-hic5o3liknW6_-3" edge="1">
          <mxGeometry width="50" height="50" relative="1" as="geometry">
            <mxPoint x="370" y="-830" as="sourcePoint" />
            <mxPoint x="870" y="-1042" as="targetPoint" />
          </mxGeometry>
        </mxCell>
        <mxCell id="BE-PEi-hic5o3liknW6_-19" style="edgeStyle=orthogonalEdgeStyle;rounded=0;orthogonalLoop=1;jettySize=auto;html=1;" parent="1" source="BE-PEi-hic5o3liknW6_-6" edge="1">
          <mxGeometry relative="1" as="geometry">
            <mxPoint x="875.0588235294117" y="-1070" as="targetPoint" />
          </mxGeometry>
        </mxCell>
        <mxCell id="BE-PEi-hic5o3liknW6_-6" value="" style="html=1;points=[];perimeter=orthogonalPerimeter;" parent="1" vertex="1">
          <mxGeometry x="870" y="-1050" width="10" height="620" as="geometry" />
        </mxCell>
        <mxCell id="BE-PEi-hic5o3liknW6_-11" value="" style="html=1;labelBackgroundColor=#ffffff;startArrow=none;startFill=0;startSize=6;endArrow=classic;endFill=1;endSize=6;jettySize=auto;orthogonalLoop=1;strokeWidth=1;dashed=1;fontSize=14;" parent="1" source="BE-PEi-hic5o3liknW6_-6" edge="1">
          <mxGeometry width="60" height="60" relative="1" as="geometry">
            <mxPoint x="340" y="-750" as="sourcePoint" />
            <mxPoint x="74" y="-1021" as="targetPoint" />
          </mxGeometry>
        </mxCell>
        <mxCell id="BE-PEi-hic5o3liknW6_-12" value="" style="html=1;points=[];perimeter=orthogonalPerimeter;" parent="1" vertex="1">
          <mxGeometry x="395" y="-980" width="10" height="490" as="geometry" />
        </mxCell>
        <mxCell id="BE-PEi-hic5o3liknW6_-26" style="edgeStyle=orthogonalEdgeStyle;rounded=0;orthogonalLoop=1;jettySize=auto;html=1;exitX=0.5;exitY=1;exitDx=0;exitDy=0;" parent="1" edge="1">
          <mxGeometry relative="1" as="geometry">
            <mxPoint x="710.5882352941178" y="-1040" as="targetPoint" />
            <mxPoint x="710" y="-1070" as="sourcePoint" />
          </mxGeometry>
        </mxCell>
        <mxCell id="BE-PEi-hic5o3liknW6_-25" style="edgeStyle=orthogonalEdgeStyle;rounded=0;orthogonalLoop=1;jettySize=auto;html=1;exitX=0.5;exitY=1;exitDx=0;exitDy=0;" parent="1" edge="1">
          <mxGeometry relative="1" as="geometry">
            <mxPoint x="550.5882352941178" y="-1040" as="targetPoint" />
            <mxPoint x="550" y="-1070" as="sourcePoint" />
          </mxGeometry>
        </mxCell>
        <mxCell id="BE-PEi-hic5o3liknW6_-24" style="edgeStyle=orthogonalEdgeStyle;rounded=0;orthogonalLoop=1;jettySize=auto;html=1;exitX=0.5;exitY=1;exitDx=0;exitDy=0;" parent="1" edge="1">
          <mxGeometry relative="1" as="geometry">
            <mxPoint x="200" y="-1040" as="targetPoint" />
            <mxPoint x="200" y="-1070" as="sourcePoint" />
          </mxGeometry>
        </mxCell>
        <mxCell id="BE-PEi-hic5o3liknW6_-22" style="edgeStyle=orthogonalEdgeStyle;rounded=0;orthogonalLoop=1;jettySize=auto;html=1;exitX=0.5;exitY=1;exitDx=0;exitDy=0;" parent="1" edge="1">
          <mxGeometry relative="1" as="geometry">
            <mxPoint x="400" y="-1040" as="targetPoint" />
            <mxPoint x="400" y="-1070" as="sourcePoint" />
          </mxGeometry>
        </mxCell>
        <mxCell id="BE-PEi-hic5o3liknW6_-27" value="" style="html=1;labelBackgroundColor=#ffffff;startArrow=none;startFill=0;startSize=6;endArrow=classic;endFill=1;endSize=6;jettySize=auto;orthogonalLoop=1;strokeWidth=1;dashed=1;fontSize=14;entryX=1.217;entryY=0.214;entryDx=0;entryDy=0;entryPerimeter=0;" parent="1" target="BE-PEi-hic5o3liknW6_-3" edge="1">
          <mxGeometry width="60" height="60" relative="1" as="geometry">
            <mxPoint x="867" y="-920" as="sourcePoint" />
            <mxPoint x="360" y="-930" as="targetPoint" />
          </mxGeometry>
        </mxCell>
        <mxCell id="BE-PEi-hic5o3liknW6_-28" value="" style="html=1;points=[];perimeter=orthogonalPerimeter;" parent="1" vertex="1">
          <mxGeometry x="195" y="-980" width="10" height="26" as="geometry" />
        </mxCell>
        <mxCell id="BE-PEi-hic5o3liknW6_-29" value="" style="endArrow=none;html=1;" parent="1" edge="1">
          <mxGeometry width="50" height="50" relative="1" as="geometry">
            <mxPoint x="199.85999999999999" y="-990" as="sourcePoint" />
            <mxPoint x="200" y="-1000" as="targetPoint" />
            <Array as="points" />
          </mxGeometry>
        </mxCell>
        <mxCell id="BE-PEi-hic5o3liknW6_-30" value="" style="endArrow=none;html=1;" parent="1" edge="1">
          <mxGeometry width="50" height="50" relative="1" as="geometry">
            <mxPoint x="199.86" y="-954" as="sourcePoint" />
            <mxPoint x="199.86" y="-944" as="targetPoint" />
            <Array as="points">
              <mxPoint x="199.86" y="-954" />
              <mxPoint x="199.86" y="-944" />
            </Array>
          </mxGeometry>
        </mxCell>
        <mxCell id="BE-PEi-hic5o3liknW6_-34" value="" style="endArrow=classic;html=1;" parent="1" target="BE-PEi-hic5o3liknW6_-12" edge="1">
          <mxGeometry width="50" height="50" relative="1" as="geometry">
            <mxPoint x="210" y="-954" as="sourcePoint" />
            <mxPoint x="460" y="-1110" as="targetPoint" />
          </mxGeometry>
        </mxCell>
        <mxCell id="BE-PEi-hic5o3liknW6_-37" value="" style="endArrow=classic;html=1;exitX=1.133;exitY=0.132;exitDx=0;exitDy=0;exitPerimeter=0;entryX=-0.143;entryY=0.401;entryDx=0;entryDy=0;entryPerimeter=0;" parent="1" source="BE-PEi-hic5o3liknW6_-3" target="BE-PEi-hic5o3liknW6_-28" edge="1">
          <mxGeometry width="50" height="50" relative="1" as="geometry">
            <mxPoint x="410" y="-1060" as="sourcePoint" />
            <mxPoint x="460" y="-1110" as="targetPoint" />
          </mxGeometry>
        </mxCell>
        <mxCell id="BE-PEi-hic5o3liknW6_-40" value="" style="html=1;labelBackgroundColor=#ffffff;startArrow=none;startFill=0;startSize=6;endArrow=classic;endFill=1;endSize=6;jettySize=auto;orthogonalLoop=1;strokeWidth=1;dashed=1;fontSize=14;" parent="1" source="BE-PEi-hic5o3liknW6_-6" edge="1">
          <mxGeometry width="60" height="60" relative="1" as="geometry">
            <mxPoint x="390" y="-890" as="sourcePoint" />
            <mxPoint x="70" y="-800" as="targetPoint" />
            <Array as="points" />
          </mxGeometry>
        </mxCell>
        <mxCell id="BE-PEi-hic5o3liknW6_-43" value="" style="html=1;points=[];perimeter=orthogonalPerimeter;" parent="1" vertex="1">
          <mxGeometry x="195" y="-890" width="10" height="26" as="geometry" />
        </mxCell>
        <mxCell id="BE-PEi-hic5o3liknW6_-44" value="" style="html=1;points=[];perimeter=orthogonalPerimeter;" parent="1" vertex="1">
          <mxGeometry x="195" y="-740" width="10" height="26" as="geometry" />
        </mxCell>
        <mxCell id="BE-PEi-hic5o3liknW6_-45" value="" style="html=1;points=[];perimeter=orthogonalPerimeter;" parent="1" vertex="1">
          <mxGeometry x="545" y="-960" width="10" height="30" as="geometry" />
        </mxCell>
        <mxCell id="BE-PEi-hic5o3liknW6_-46" value="" style="html=1;labelBackgroundColor=#ffffff;jettySize=auto;orthogonalLoop=1;strokeWidth=1;fontSize=14;endArrow=none;endFill=0;" parent="1" edge="1">
          <mxGeometry width="60" height="60" relative="1" as="geometry">
            <mxPoint x="549.58" y="-919" as="sourcePoint" />
            <mxPoint x="549.58" y="-930" as="targetPoint" />
          </mxGeometry>
        </mxCell>
        <mxCell id="BE-PEi-hic5o3liknW6_-47" value="" style="html=1;labelBackgroundColor=#ffffff;endArrow=classic;endFill=1;endSize=6;jettySize=auto;orthogonalLoop=1;strokeWidth=1;fontSize=14;exitX=-0.011;exitY=1.025;exitDx=0;exitDy=0;exitPerimeter=0;entryX=0.05;entryY=-0.011;entryDx=0;entryDy=0;entryPerimeter=0;" parent="1" target="BE-PEi-hic5o3liknW6_-45" edge="1">
          <mxGeometry width="60" height="60" relative="1" as="geometry">
            <mxPoint x="413.7900000000002" y="-959.5" as="sourcePoint" />
            <mxPoint x="610" y="-950" as="targetPoint" />
          </mxGeometry>
        </mxCell>
        <mxCell id="BE-PEi-hic5o3liknW6_-48" value="" style="html=1;labelBackgroundColor=#ffffff;startArrow=none;startFill=0;startSize=6;endArrow=classic;endFill=1;endSize=6;jettySize=auto;orthogonalLoop=1;strokeWidth=1;dashed=1;fontSize=14;exitX=-0.367;exitY=0.656;exitDx=0;exitDy=0;exitPerimeter=0;" parent="1" source="BE-PEi-hic5o3liknW6_-45" edge="1">
          <mxGeometry width="60" height="60" relative="1" as="geometry">
            <mxPoint x="550" y="-890" as="sourcePoint" />
            <mxPoint x="410" y="-940" as="targetPoint" />
          </mxGeometry>
        </mxCell>
        <mxCell id="BE-PEi-hic5o3liknW6_-51" value="" style="html=1;labelBackgroundColor=#ffffff;jettySize=auto;orthogonalLoop=1;strokeWidth=1;fontSize=14;endArrow=none;endFill=0;entryX=0.55;entryY=0.044;entryDx=0;entryDy=0;entryPerimeter=0;" parent="1" target="BE-PEi-hic5o3liknW6_-45" edge="1">
          <mxGeometry width="60" height="60" relative="1" as="geometry">
            <mxPoint x="550" y="-970" as="sourcePoint" />
            <mxPoint x="610" y="-950" as="targetPoint" />
          </mxGeometry>
        </mxCell>
        <mxCell id="BE-PEi-hic5o3liknW6_-60" value="" style="html=1;labelBackgroundColor=#ffffff;endArrow=classic;endFill=1;endSize=6;jettySize=auto;orthogonalLoop=1;strokeWidth=1;fontSize=14;" parent="1" edge="1">
          <mxGeometry width="60" height="60" relative="1" as="geometry">
            <mxPoint x="207" y="-870" as="sourcePoint" />
            <mxPoint x="390" y="-870" as="targetPoint" />
          </mxGeometry>
        </mxCell>
        <mxCell id="BE-PEi-hic5o3liknW6_-62" value="" style="endArrow=classic;html=1;exitX=1.133;exitY=0.277;exitDx=0;exitDy=0;exitPerimeter=0;entryX=0.133;entryY=0.404;entryDx=0;entryDy=0;entryPerimeter=0;" parent="1" source="BE-PEi-hic5o3liknW6_-3" target="BE-PEi-hic5o3liknW6_-43" edge="1">
          <mxGeometry width="50" height="50" relative="1" as="geometry">
            <mxPoint x="250" y="-770" as="sourcePoint" />
            <mxPoint x="300" y="-820" as="targetPoint" />
          </mxGeometry>
        </mxCell>
        <mxCell id="BE-PEi-hic5o3liknW6_-63" value="" style="html=1;labelBackgroundColor=#ffffff;jettySize=auto;orthogonalLoop=1;strokeWidth=1;fontSize=14;endArrow=none;endFill=0;" parent="1" edge="1">
          <mxGeometry width="60" height="60" relative="1" as="geometry">
            <mxPoint x="550" y="-870" as="sourcePoint" />
            <mxPoint x="550" y="-900" as="targetPoint" />
          </mxGeometry>
        </mxCell>
        <mxCell id="BE-PEi-hic5o3liknW6_-67" value="" style="html=1;labelBackgroundColor=#ffffff;endArrow=classic;endFill=1;endSize=6;jettySize=auto;orthogonalLoop=1;strokeWidth=1;fontSize=14;exitX=-0.011;exitY=1.025;exitDx=0;exitDy=0;exitPerimeter=0;entryX=0.05;entryY=-0.011;entryDx=0;entryDy=0;entryPerimeter=0;" parent="1" edge="1">
          <mxGeometry width="60" height="60" relative="1" as="geometry">
            <mxPoint x="414.99999999999994" y="-839.17" as="sourcePoint" />
            <mxPoint x="546.7099999999998" y="-839.9999999999999" as="targetPoint" />
          </mxGeometry>
        </mxCell>
        <mxCell id="BE-PEi-hic5o3liknW6_-68" value="" style="html=1;labelBackgroundColor=#ffffff;startArrow=none;startFill=0;startSize=6;endArrow=classic;endFill=1;endSize=6;jettySize=auto;orthogonalLoop=1;strokeWidth=1;dashed=1;fontSize=14;exitX=-0.367;exitY=0.656;exitDx=0;exitDy=0;exitPerimeter=0;" parent="1" edge="1">
          <mxGeometry width="60" height="60" relative="1" as="geometry">
            <mxPoint x="545.3299999999999" y="-825.0000000000001" as="sourcePoint" />
            <mxPoint x="414" y="-824.6800000000001" as="targetPoint" />
          </mxGeometry>
        </mxCell>
        <mxCell id="BE-PEi-hic5o3liknW6_-69" value="" style="html=1;labelBackgroundColor=#ffffff;jettySize=auto;orthogonalLoop=1;strokeWidth=1;fontSize=14;endArrow=none;endFill=0;" parent="1" edge="1">
          <mxGeometry width="60" height="60" relative="1" as="geometry">
            <mxPoint x="399.92" y="-1000" as="sourcePoint" />
            <mxPoint x="399.92" y="-990" as="targetPoint" />
          </mxGeometry>
        </mxCell>
        <mxCell id="BE-PEi-hic5o3liknW6_-70" value="" style="html=1;labelBackgroundColor=#ffffff;jettySize=auto;orthogonalLoop=1;strokeWidth=1;fontSize=14;endArrow=none;endFill=0;" parent="1" edge="1">
          <mxGeometry width="60" height="60" relative="1" as="geometry">
            <mxPoint x="399.9200000000001" y="-1000" as="sourcePoint" />
            <mxPoint x="399.9200000000001" y="-990" as="targetPoint" />
          </mxGeometry>
        </mxCell>
        <mxCell id="BE-PEi-hic5o3liknW6_-71" value="" style="html=1;labelBackgroundColor=#ffffff;jettySize=auto;orthogonalLoop=1;strokeWidth=1;fontSize=14;endArrow=none;endFill=0;" parent="1" edge="1">
          <mxGeometry width="60" height="60" relative="1" as="geometry">
            <mxPoint x="549.8000000000001" y="-1000" as="sourcePoint" />
            <mxPoint x="549.8000000000001" y="-990" as="targetPoint" />
            <Array as="points">
              <mxPoint x="549.88" y="-990" />
            </Array>
          </mxGeometry>
        </mxCell>
        <mxCell id="BE-PEi-hic5o3liknW6_-72" value="" style="html=1;labelBackgroundColor=#ffffff;jettySize=auto;orthogonalLoop=1;strokeWidth=1;fontSize=14;endArrow=none;endFill=0;" parent="1" edge="1">
          <mxGeometry width="60" height="60" relative="1" as="geometry">
            <mxPoint x="710" y="-980" as="sourcePoint" />
            <mxPoint x="710" y="-1010" as="targetPoint" />
          </mxGeometry>
        </mxCell>
        <mxCell id="BE-PEi-hic5o3liknW6_-73" value="" style="html=1;labelBackgroundColor=#ffffff;startArrow=none;startFill=0;startSize=6;endArrow=classic;endFill=1;endSize=6;jettySize=auto;orthogonalLoop=1;strokeWidth=1;dashed=1;fontSize=14;" parent="1" edge="1">
          <mxGeometry width="60" height="60" relative="1" as="geometry">
            <mxPoint x="870" y="-660.0000000000002" as="sourcePoint" />
            <mxPoint x="70" y="-660.0000000000002" as="targetPoint" />
            <Array as="points" />
          </mxGeometry>
        </mxCell>
        <mxCell id="BE-PEi-hic5o3liknW6_-76" value="" style="html=1;labelBackgroundColor=#ffffff;jettySize=auto;orthogonalLoop=1;strokeWidth=1;fontSize=14;endArrow=none;endFill=0;" parent="1" edge="1">
          <mxGeometry width="60" height="60" relative="1" as="geometry">
            <mxPoint x="198.82000000000016" y="-850" as="sourcePoint" />
            <mxPoint x="198.82000000000016" y="-840" as="targetPoint" />
            <Array as="points">
              <mxPoint x="198.89999999999998" y="-840" />
            </Array>
          </mxGeometry>
        </mxCell>
        <mxCell id="BE-PEi-hic5o3liknW6_-77" value="" style="html=1;labelBackgroundColor=#ffffff;jettySize=auto;orthogonalLoop=1;strokeWidth=1;fontSize=14;endArrow=none;endFill=0;entryX=-0.002;entryY=0.974;entryDx=0;entryDy=0;entryPerimeter=0;" parent="1" edge="1">
          <mxGeometry width="60" height="60" relative="1" as="geometry">
            <mxPoint x="200" y="-760" as="sourcePoint" />
            <mxPoint x="199.62000000000012" y="-800.78" as="targetPoint" />
          </mxGeometry>
        </mxCell>
        <mxCell id="BE-PEi-hic5o3liknW6_-78" value="" style="html=1;labelBackgroundColor=#ffffff;endArrow=classic;endFill=1;endSize=6;jettySize=auto;orthogonalLoop=1;strokeWidth=1;fontSize=14;" parent="1" edge="1">
          <mxGeometry width="60" height="60" relative="1" as="geometry">
            <mxPoint x="207" y="-727.34" as="sourcePoint" />
            <mxPoint x="390" y="-727.34" as="targetPoint" />
          </mxGeometry>
        </mxCell>
        <mxCell id="BE-PEi-hic5o3liknW6_-80" value="" style="html=1;labelBackgroundColor=#ffffff;jettySize=auto;orthogonalLoop=1;strokeWidth=1;fontSize=14;endArrow=none;endFill=0;" parent="1" edge="1">
          <mxGeometry width="60" height="60" relative="1" as="geometry">
            <mxPoint x="710" y="-930" as="sourcePoint" />
            <mxPoint x="710" y="-960" as="targetPoint" />
          </mxGeometry>
        </mxCell>
        <mxCell id="BE-PEi-hic5o3liknW6_-81" value="" style="html=1;labelBackgroundColor=#ffffff;jettySize=auto;orthogonalLoop=1;strokeWidth=1;fontSize=14;endArrow=none;endFill=0;" parent="1" edge="1">
          <mxGeometry width="60" height="60" relative="1" as="geometry">
            <mxPoint x="709.5" y="-870" as="sourcePoint" />
            <mxPoint x="709.5" y="-900" as="targetPoint" />
          </mxGeometry>
        </mxCell>
        <mxCell id="BE-PEi-hic5o3liknW6_-82" value="" style="html=1;labelBackgroundColor=#ffffff;jettySize=auto;orthogonalLoop=1;strokeWidth=1;fontSize=14;endArrow=none;endFill=0;" parent="1" edge="1">
          <mxGeometry width="60" height="60" relative="1" as="geometry">
            <mxPoint x="709.5" y="-805" as="sourcePoint" />
            <mxPoint x="709.5" y="-835" as="targetPoint" />
          </mxGeometry>
        </mxCell>
        <mxCell id="BE-PEi-hic5o3liknW6_-83" value="" style="html=1;labelBackgroundColor=#ffffff;jettySize=auto;orthogonalLoop=1;strokeWidth=1;fontSize=14;endArrow=none;endFill=0;" parent="1" edge="1">
          <mxGeometry width="60" height="60" relative="1" as="geometry">
            <mxPoint x="709.5" y="-750" as="sourcePoint" />
            <mxPoint x="709.5" y="-780" as="targetPoint" />
          </mxGeometry>
        </mxCell>
        <mxCell id="BE-PEi-hic5o3liknW6_-84" value="" style="html=1;points=[];perimeter=orthogonalPerimeter;" parent="1" vertex="1">
          <mxGeometry x="705" y="-720" width="10" height="36" as="geometry" />
        </mxCell>
        <mxCell id="BE-PEi-hic5o3liknW6_-86" value="" style="html=1;labelBackgroundColor=#ffffff;jettySize=auto;orthogonalLoop=1;strokeWidth=1;fontSize=14;endArrow=none;endFill=0;" parent="1" edge="1">
          <mxGeometry width="60" height="60" relative="1" as="geometry">
            <mxPoint x="710" y="-660" as="sourcePoint" />
            <mxPoint x="709.71" y="-684" as="targetPoint" />
          </mxGeometry>
        </mxCell>
        <mxCell id="BE-PEi-hic5o3liknW6_-87" value="" style="html=1;labelBackgroundColor=#ffffff;jettySize=auto;orthogonalLoop=1;strokeWidth=1;fontSize=14;endArrow=none;endFill=0;" parent="1" edge="1">
          <mxGeometry width="60" height="60" relative="1" as="geometry">
            <mxPoint x="709.41" y="-590.0000000000002" as="sourcePoint" />
            <mxPoint x="709.41" y="-620.0000000000002" as="targetPoint" />
          </mxGeometry>
        </mxCell>
        <mxCell id="BE-PEi-hic5o3liknW6_-88" value="" style="html=1;points=[];perimeter=orthogonalPerimeter;" parent="1" vertex="1">
          <mxGeometry x="705" y="-580" width="10" height="30" as="geometry" />
        </mxCell>
        <mxCell id="BE-PEi-hic5o3liknW6_-89" value="" style="html=1;labelBackgroundColor=#ffffff;endArrow=classic;endFill=1;endSize=6;jettySize=auto;orthogonalLoop=1;strokeWidth=1;fontSize=14;entryX=0.206;entryY=0.118;entryDx=0;entryDy=0;entryPerimeter=0;exitX=0.945;exitY=0.539;exitDx=0;exitDy=0;exitPerimeter=0;" parent="1" source="BE-PEi-hic5o3liknW6_-12" target="BE-PEi-hic5o3liknW6_-84" edge="1">
          <mxGeometry width="60" height="60" relative="1" as="geometry">
            <mxPoint x="406" y="-730" as="sourcePoint" />
            <mxPoint x="536.7099999999998" y="-715.1800000000001" as="targetPoint" />
          </mxGeometry>
        </mxCell>
        <mxCell id="BE-PEi-hic5o3liknW6_-90" value="" style="html=1;labelBackgroundColor=#ffffff;startArrow=none;startFill=0;startSize=6;endArrow=classic;endFill=1;endSize=6;jettySize=auto;orthogonalLoop=1;strokeWidth=1;dashed=1;fontSize=14;exitX=-0.367;exitY=0.656;exitDx=0;exitDy=0;exitPerimeter=0;entryX=1.083;entryY=0.585;entryDx=0;entryDy=0;entryPerimeter=0;" parent="1" target="BE-PEi-hic5o3liknW6_-12" edge="1">
          <mxGeometry width="60" height="60" relative="1" as="geometry">
            <mxPoint x="704.9999999999999" y="-690.0000000000001" as="sourcePoint" />
            <mxPoint x="573.67" y="-689.6800000000002" as="targetPoint" />
          </mxGeometry>
        </mxCell>
        <mxCell id="BE-PEi-hic5o3liknW6_-91" value="Maintenance" style="shape=umlActor;verticalLabelPosition=bottom;verticalAlign=top;html=1;outlineConnect=0;" parent="1" vertex="1">
          <mxGeometry x="185" y="-1150" width="30" height="60" as="geometry" />
        </mxCell>
        <mxCell id="BE-PEi-hic5o3liknW6_-92" value="Opérateur" style="shape=umlActor;verticalLabelPosition=bottom;verticalAlign=top;html=1;outlineConnect=0;" parent="1" vertex="1">
          <mxGeometry x="384" y="-1150" width="30" height="60" as="geometry" />
        </mxCell>
        <mxCell id="BE-PEi-hic5o3liknW6_-95" value="&lt;p style=&quot;margin: 0px ; margin-top: 4px ; margin-left: 7px ; text-align: left&quot;&gt;&lt;b&gt;uc Arroseur automatisé&lt;/b&gt;&lt;/p&gt;" style="html=1;shape=mxgraph.sysml.package;overflow=fill;labelX=153;strokeWidth=2;align=center;" parent="1" vertex="1">
          <mxGeometry x="160" y="40" width="610" height="730" as="geometry" />
        </mxCell>
        <mxCell id="BE-PEi-hic5o3liknW6_-96" value="Opérateur" style="shape=umlActor;html=1;verticalLabelPosition=bottom;verticalAlign=top;align=center;" parent="1" vertex="1">
          <mxGeometry x="80" y="100" width="50" height="100" as="geometry" />
        </mxCell>
        <mxCell id="BE-PEi-hic5o3liknW6_-97" value="&lt;p style=&quot;margin: 0px ; margin-top: 4px ; text-align: center&quot;&gt;&amp;lt;&amp;lt;actor&amp;gt;&amp;gt;&lt;br&gt;&lt;b&gt;12V - 0.4A&lt;br&gt;&lt;/b&gt;&lt;/p&gt;&lt;p style=&quot;margin: 0px ; margin-top: 4px ; text-align: center&quot;&gt;&lt;b&gt;&lt;br&gt;&lt;/b&gt;&lt;/p&gt;" style="shape=rect;html=1;overflow=fill;html=1;whiteSpace=wrap;align=center;" parent="1" vertex="1">
          <mxGeometry x="780" y="140" width="80" height="40" as="geometry" />
        </mxCell>
        <mxCell id="BE-PEi-hic5o3liknW6_-98" value="&lt;p style=&quot;margin: 0px ; margin-top: 4px ; text-align: center&quot;&gt;&amp;lt;&amp;lt;actor&amp;gt;&amp;gt;&lt;br&gt;&lt;b&gt;Eau&lt;/b&gt;&lt;/p&gt;" style="shape=rect;html=1;overflow=fill;html=1;whiteSpace=wrap;align=center;" parent="1" vertex="1">
          <mxGeometry x="780" y="440" width="80" height="40" as="geometry" />
        </mxCell>
        <mxCell id="BE-PEi-hic5o3liknW6_-99" value="&lt;p style=&quot;margin: 0px ; margin-top: 4px ; text-align: center&quot;&gt;&amp;lt;&amp;lt;actor&amp;gt;&amp;gt;&lt;br&gt;&lt;b&gt;Humidité&lt;/b&gt;&lt;/p&gt;" style="shape=rect;html=1;overflow=fill;html=1;whiteSpace=wrap;align=center;" parent="1" vertex="1">
          <mxGeometry x="780" y="560" width="80" height="40" as="geometry" />
        </mxCell>
        <mxCell id="BE-PEi-hic5o3liknW6_-100" value="&lt;p style=&quot;margin: 0px ; margin-top: 4px ; text-align: center&quot;&gt;&amp;lt;&amp;lt;actor&amp;gt;&amp;gt;&lt;br&gt;&lt;b&gt;Température&amp;nbsp;&lt;/b&gt;&lt;/p&gt;" style="shape=rect;html=1;overflow=fill;html=1;whiteSpace=wrap;align=center;" parent="1" vertex="1">
          <mxGeometry x="780" y="680" width="80" height="40" as="geometry" />
        </mxCell>
        <mxCell id="BE-PEi-hic5o3liknW6_-101" value="Installateur" style="shape=umlActor;html=1;verticalLabelPosition=bottom;verticalAlign=top;align=center;" parent="1" vertex="1">
          <mxGeometry x="80" y="550" width="50" height="100" as="geometry" />
        </mxCell>
        <mxCell id="BE-PEi-hic5o3liknW6_-102" value="Maintenance" style="shape=umlActor;html=1;verticalLabelPosition=bottom;verticalAlign=top;align=center;" parent="1" vertex="1">
          <mxGeometry x="80" y="330" width="50" height="100" as="geometry" />
        </mxCell>
        <mxCell id="BE-PEi-hic5o3liknW6_-103" value="" style="edgeStyle=none;html=1;endArrow=block;endFill=0;endSize=12;verticalAlign=bottom;exitX=0.5;exitY=0;exitDx=0;exitDy=0;exitPerimeter=0;" parent="1" source="BE-PEi-hic5o3liknW6_-101" target="BE-PEi-hic5o3liknW6_-102" edge="1">
          <mxGeometry width="160" relative="1" as="geometry">
            <mxPoint x="110" y="510" as="sourcePoint" />
            <mxPoint x="120" y="450" as="targetPoint" />
          </mxGeometry>
        </mxCell>
        <mxCell id="BE-PEi-hic5o3liknW6_-104" value="" style="edgeStyle=none;html=1;endArrow=block;endFill=0;endSize=12;verticalAlign=bottom;exitX=0.5;exitY=0;exitDx=0;exitDy=0;exitPerimeter=0;" parent="1" source="BE-PEi-hic5o3liknW6_-102" target="BE-PEi-hic5o3liknW6_-96" edge="1">
          <mxGeometry width="160" relative="1" as="geometry">
            <mxPoint x="104.5" y="310" as="sourcePoint" />
            <mxPoint x="104.5" y="230" as="targetPoint" />
          </mxGeometry>
        </mxCell>
        <mxCell id="BE-PEi-hic5o3liknW6_-105" value="Mesurer paramètres atmosphérique" style="shape=ellipse;html=1;strokeWidth=3;fontStyle=1;whiteSpace=wrap;align=center;perimeter=ellipsePerimeter;" parent="1" vertex="1">
          <mxGeometry x="454" y="500" width="120" height="60" as="geometry" />
        </mxCell>
        <mxCell id="BE-PEi-hic5o3liknW6_-106" value="Distribuer l&#39;eau" style="shape=ellipse;html=1;strokeWidth=3;fontStyle=1;whiteSpace=wrap;align=center;perimeter=ellipsePerimeter;" parent="1" vertex="1">
          <mxGeometry x="574" y="290" width="120" height="60" as="geometry" />
        </mxCell>
        <mxCell id="BE-PEi-hic5o3liknW6_-107" value="" style="edgeStyle=none;html=1;endArrow=none;verticalAlign=bottom;exitX=0;exitY=0.5;exitDx=0;exitDy=0;entryX=1;entryY=0;entryDx=0;entryDy=0;" parent="1" source="BE-PEi-hic5o3liknW6_-98" target="BE-PEi-hic5o3liknW6_-105" edge="1">
          <mxGeometry width="160" relative="1" as="geometry">
            <mxPoint x="440" y="460" as="sourcePoint" />
            <mxPoint x="574" y="422" as="targetPoint" />
          </mxGeometry>
        </mxCell>
        <mxCell id="BE-PEi-hic5o3liknW6_-108" value="" style="edgeStyle=none;html=1;endArrow=none;verticalAlign=bottom;exitX=0;exitY=0.5;exitDx=0;exitDy=0;entryX=1;entryY=1;entryDx=0;entryDy=0;" parent="1" source="BE-PEi-hic5o3liknW6_-98" target="BE-PEi-hic5o3liknW6_-106" edge="1">
          <mxGeometry width="160" relative="1" as="geometry">
            <mxPoint x="790" y="470" as="sourcePoint" />
            <mxPoint x="584" y="432" as="targetPoint" />
          </mxGeometry>
        </mxCell>
        <mxCell id="BE-PEi-hic5o3liknW6_-109" value="" style="edgeStyle=none;html=1;endArrow=none;verticalAlign=bottom;entryX=0;entryY=0.5;entryDx=0;entryDy=0;exitX=1;exitY=0.5;exitDx=0;exitDy=0;" parent="1" source="BE-PEi-hic5o3liknW6_-105" target="BE-PEi-hic5o3liknW6_-99" edge="1">
          <mxGeometry width="160" relative="1" as="geometry">
            <mxPoint x="440" y="460" as="sourcePoint" />
            <mxPoint x="600" y="460" as="targetPoint" />
          </mxGeometry>
        </mxCell>
        <mxCell id="BE-PEi-hic5o3liknW6_-110" value="Arroser" style="shape=ellipse;html=1;strokeWidth=3;fontStyle=1;whiteSpace=wrap;align=center;perimeter=ellipsePerimeter;" parent="1" vertex="1">
          <mxGeometry x="440" y="80" width="120" height="60" as="geometry" />
        </mxCell>
        <mxCell id="BE-PEi-hic5o3liknW6_-111" value="&amp;lt;&amp;lt;include&amp;gt;&amp;gt;" style="edgeStyle=none;html=1;endArrow=open;verticalAlign=bottom;dashed=1;labelBackgroundColor=none;exitX=1;exitY=1;exitDx=0;exitDy=0;entryX=0;entryY=0;entryDx=0;entryDy=0;" parent="1" source="BE-PEi-hic5o3liknW6_-110" target="BE-PEi-hic5o3liknW6_-106" edge="1">
          <mxGeometry width="160" relative="1" as="geometry">
            <mxPoint x="440" y="460" as="sourcePoint" />
            <mxPoint x="600" y="460" as="targetPoint" />
          </mxGeometry>
        </mxCell>
        <mxCell id="BE-PEi-hic5o3liknW6_-112" value="&amp;lt;&amp;lt;include&amp;gt;&amp;gt;" style="edgeStyle=none;html=1;endArrow=open;verticalAlign=bottom;dashed=1;labelBackgroundColor=none;exitX=0.5;exitY=1;exitDx=0;exitDy=0;" parent="1" source="BE-PEi-hic5o3liknW6_-110" target="BE-PEi-hic5o3liknW6_-105" edge="1">
          <mxGeometry width="160" relative="1" as="geometry">
            <mxPoint x="492.4264068712082" y="141.2132034356041" as="sourcePoint" />
            <mxPoint x="514" y="380" as="targetPoint" />
          </mxGeometry>
        </mxCell>
        <mxCell id="BE-PEi-hic5o3liknW6_-113" value="Planifier les arrosages" style="shape=ellipse;html=1;strokeWidth=3;fontStyle=1;whiteSpace=wrap;align=center;perimeter=ellipsePerimeter;" parent="1" vertex="1">
          <mxGeometry x="250" y="150" width="120" height="60" as="geometry" />
        </mxCell>
        <mxCell id="BE-PEi-hic5o3liknW6_-114" style="edgeStyle=none;rounded=0;orthogonalLoop=1;jettySize=auto;html=1;exitX=0.5;exitY=0;exitDx=0;exitDy=0;" parent="1" source="BE-PEi-hic5o3liknW6_-113" target="BE-PEi-hic5o3liknW6_-113" edge="1">
          <mxGeometry relative="1" as="geometry" />
        </mxCell>
        <mxCell id="BE-PEi-hic5o3liknW6_-115" value="" style="edgeStyle=none;html=1;endArrow=none;verticalAlign=bottom;exitX=1;exitY=0.3333333333333333;exitDx=0;exitDy=0;exitPerimeter=0;" parent="1" source="BE-PEi-hic5o3liknW6_-96" edge="1">
          <mxGeometry width="160" relative="1" as="geometry">
            <mxPoint x="600" y="100" as="sourcePoint" />
            <mxPoint x="440" y="110" as="targetPoint" />
          </mxGeometry>
        </mxCell>
        <mxCell id="BE-PEi-hic5o3liknW6_-116" value="Installation" style="shape=ellipse;html=1;strokeWidth=3;fontStyle=1;whiteSpace=wrap;align=center;perimeter=ellipsePerimeter;" parent="1" vertex="1">
          <mxGeometry x="260" y="650" width="120" height="60" as="geometry" />
        </mxCell>
        <mxCell id="BE-PEi-hic5o3liknW6_-117" value="configurer le système" style="shape=ellipse;html=1;strokeWidth=3;fontStyle=1;whiteSpace=wrap;align=center;perimeter=ellipsePerimeter;" parent="1" vertex="1">
          <mxGeometry x="220" y="380" width="120" height="60" as="geometry" />
        </mxCell>
        <mxCell id="BE-PEi-hic5o3liknW6_-118" value="" style="edgeStyle=none;html=1;endArrow=none;verticalAlign=bottom;exitX=1;exitY=0.3333333333333333;exitDx=0;exitDy=0;exitPerimeter=0;entryX=0.5;entryY=0;entryDx=0;entryDy=0;" parent="1" source="BE-PEi-hic5o3liknW6_-102" target="BE-PEi-hic5o3liknW6_-117" edge="1">
          <mxGeometry width="160" relative="1" as="geometry">
            <mxPoint x="470" y="480" as="sourcePoint" />
            <mxPoint x="630" y="480" as="targetPoint" />
          </mxGeometry>
        </mxCell>
        <mxCell id="BE-PEi-hic5o3liknW6_-119" value="" style="edgeStyle=none;html=1;endArrow=none;verticalAlign=bottom;exitX=1;exitY=0.3333333333333333;exitDx=0;exitDy=0;exitPerimeter=0;entryX=0.5;entryY=0;entryDx=0;entryDy=0;" parent="1" source="BE-PEi-hic5o3liknW6_-101" target="BE-PEi-hic5o3liknW6_-116" edge="1">
          <mxGeometry width="160" relative="1" as="geometry">
            <mxPoint x="470" y="480" as="sourcePoint" />
            <mxPoint x="630" y="480" as="targetPoint" />
          </mxGeometry>
        </mxCell>
        <mxCell id="BE-PEi-hic5o3liknW6_-120" value="" style="edgeStyle=none;html=1;endArrow=none;verticalAlign=bottom;entryX=0;entryY=0.5;entryDx=0;entryDy=0;exitX=1;exitY=1;exitDx=0;exitDy=0;" parent="1" source="BE-PEi-hic5o3liknW6_-105" target="BE-PEi-hic5o3liknW6_-100" edge="1">
          <mxGeometry width="160" relative="1" as="geometry">
            <mxPoint x="514" y="640" as="sourcePoint" />
            <mxPoint x="630" y="560" as="targetPoint" />
          </mxGeometry>
        </mxCell>
        <mxCell id="BE-PEi-hic5o3liknW6_-121" value="gérer les vannes" style="shape=ellipse;html=1;strokeWidth=3;fontStyle=1;whiteSpace=wrap;align=center;perimeter=ellipsePerimeter;" parent="1" vertex="1">
          <mxGeometry x="340" y="260" width="120" height="60" as="geometry" />
        </mxCell>
        <mxCell id="BE-PEi-hic5o3liknW6_-122" value="Vérifier statut système" style="shape=ellipse;html=1;strokeWidth=3;fontStyle=1;whiteSpace=wrap;align=center;perimeter=ellipsePerimeter;" parent="1" vertex="1">
          <mxGeometry x="190" y="250" width="120" height="60" as="geometry" />
        </mxCell>
        <mxCell id="BE-PEi-hic5o3liknW6_-123" value="" style="edgeStyle=none;html=1;endArrow=none;verticalAlign=bottom;exitX=1;exitY=0.3333333333333333;exitDx=0;exitDy=0;exitPerimeter=0;" parent="1" source="BE-PEi-hic5o3liknW6_-96" target="BE-PEi-hic5o3liknW6_-122" edge="1">
          <mxGeometry width="160" relative="1" as="geometry">
            <mxPoint x="140" y="143.33333333333326" as="sourcePoint" />
            <mxPoint x="260" y="170" as="targetPoint" />
          </mxGeometry>
        </mxCell>
        <mxCell id="BE-PEi-hic5o3liknW6_-124" value="&amp;lt;&amp;lt;include&amp;gt;&amp;gt;" style="edgeStyle=none;html=1;endArrow=open;verticalAlign=bottom;dashed=1;labelBackgroundColor=none;exitX=0.5;exitY=1;exitDx=0;exitDy=0;entryX=0.5;entryY=0;entryDx=0;entryDy=0;" parent="1" source="BE-PEi-hic5o3liknW6_-110" target="BE-PEi-hic5o3liknW6_-121" edge="1">
          <mxGeometry width="160" relative="1" as="geometry">
            <mxPoint x="450" y="150" as="sourcePoint" />
            <mxPoint x="524" y="390" as="targetPoint" />
          </mxGeometry>
        </mxCell>
        <mxCell id="BE-PEi-hic5o3liknW6_-125" value="vérifier le fonctionnement" style="shape=ellipse;html=1;strokeWidth=3;fontStyle=1;whiteSpace=wrap;align=center;perimeter=ellipsePerimeter;" parent="1" vertex="1">
          <mxGeometry x="220" y="460" width="120" height="60" as="geometry" />
        </mxCell>
        <mxCell id="BE-PEi-hic5o3liknW6_-126" value="" style="edgeStyle=none;html=1;endArrow=none;verticalAlign=bottom;exitX=1;exitY=0.3333333333333333;exitDx=0;exitDy=0;exitPerimeter=0;entryX=0;entryY=0;entryDx=0;entryDy=0;" parent="1" source="BE-PEi-hic5o3liknW6_-102" target="BE-PEi-hic5o3liknW6_-125" edge="1">
          <mxGeometry width="160" relative="1" as="geometry">
            <mxPoint x="140" y="373.3333333333335" as="sourcePoint" />
            <mxPoint x="290" y="390" as="targetPoint" />
          </mxGeometry>
        </mxCell>
        <mxCell id="BE-PEi-hic5o3liknW6_-127" value="" style="edgeStyle=none;html=1;endArrow=none;verticalAlign=bottom;exitX=0;exitY=0.5;exitDx=0;exitDy=0;entryX=1;entryY=0.5;entryDx=0;entryDy=0;" parent="1" source="BE-PEi-hic5o3liknW6_-97" target="BE-PEi-hic5o3liknW6_-121" edge="1">
          <mxGeometry width="160" relative="1" as="geometry">
            <mxPoint x="790" y="470" as="sourcePoint" />
            <mxPoint x="584" y="432" as="targetPoint" />
          </mxGeometry>
        </mxCell>
        <mxCell id="BE-PEi-hic5o3liknW6_-128" value="&amp;lt;&amp;lt;include&amp;gt;&amp;gt;" style="edgeStyle=none;html=1;endArrow=open;verticalAlign=bottom;dashed=1;labelBackgroundColor=none;exitX=1;exitY=1;exitDx=0;exitDy=0;entryX=0;entryY=0;entryDx=0;entryDy=0;" parent="1" source="BE-PEi-hic5o3liknW6_-122" target="BE-PEi-hic5o3liknW6_-105" edge="1">
          <mxGeometry width="160" relative="1" as="geometry">
            <mxPoint x="302.42640687119297" y="311.21320343559637" as="sourcePoint" />
            <mxPoint x="464" y="420" as="targetPoint" />
          </mxGeometry>
        </mxCell>
        <mxCell id="BE-PEi-hic5o3liknW6_-129" value="&amp;lt;&amp;lt;include&amp;gt;&amp;gt;" style="edgeStyle=none;html=1;endArrow=open;verticalAlign=bottom;dashed=1;labelBackgroundColor=none;exitX=1;exitY=1;exitDx=0;exitDy=0;entryX=0;entryY=0;entryDx=0;entryDy=0;" parent="1" source="BE-PEi-hic5o3liknW6_-113" target="BE-PEi-hic5o3liknW6_-121" edge="1">
          <mxGeometry width="160" relative="1" as="geometry">
            <mxPoint x="450" y="150" as="sourcePoint" />
            <mxPoint x="410" y="270" as="targetPoint" />
          </mxGeometry>
        </mxCell>
        <mxCell id="BE-PEi-hic5o3liknW6_-130" value="&amp;lt;&amp;lt;include&amp;gt;&amp;gt;" style="edgeStyle=none;html=1;endArrow=open;verticalAlign=bottom;dashed=1;labelBackgroundColor=none;exitX=0;exitY=0.5;exitDx=0;exitDy=0;entryX=0.967;entryY=0.333;entryDx=0;entryDy=0;entryPerimeter=0;" parent="1" source="BE-PEi-hic5o3liknW6_-110" target="BE-PEi-hic5o3liknW6_-113" edge="1">
          <mxGeometry width="160" relative="1" as="geometry">
            <mxPoint x="322.42640687119297" y="191.21320343559637" as="sourcePoint" />
            <mxPoint x="367.57359312880703" y="278.78679656440363" as="targetPoint" />
            <Array as="points">
              <mxPoint x="410" y="140" />
            </Array>
          </mxGeometry>
        </mxCell>
        <mxCell id="BE-PEi-hic5o3liknW6_-131" value="&amp;lt;&amp;lt;include&amp;gt;&amp;gt;" style="edgeStyle=none;html=1;endArrow=open;verticalAlign=bottom;dashed=1;labelBackgroundColor=none;exitX=1;exitY=0.5;exitDx=0;exitDy=0;entryX=0;entryY=0.5;entryDx=0;entryDy=0;" parent="1" source="BE-PEi-hic5o3liknW6_-125" target="BE-PEi-hic5o3liknW6_-105" edge="1">
          <mxGeometry width="160" relative="1" as="geometry">
            <mxPoint x="302.42640687119297" y="311.21320343559637" as="sourcePoint" />
            <mxPoint x="481.57359312880703" y="518.7867965644036" as="targetPoint" />
          </mxGeometry>
        </mxCell>
        <mxCell id="BE-PEi-hic5o3liknW6_-132" value="&lt;p style=&quot;margin: 0px ; margin-top: 4px ; text-align: center&quot;&gt;&amp;lt;&amp;lt;actor&amp;gt;&amp;gt;&lt;br&gt;&lt;b&gt;Sol&lt;/b&gt;&lt;/p&gt;" style="shape=rect;html=1;overflow=fill;html=1;whiteSpace=wrap;align=center;" parent="1" vertex="1">
          <mxGeometry x="780" y="330" width="80" height="40" as="geometry" />
        </mxCell>
        <mxCell id="BE-PEi-hic5o3liknW6_-133" value="" style="edgeStyle=none;html=1;endArrow=none;verticalAlign=bottom;exitX=1;exitY=0.5;exitDx=0;exitDy=0;entryX=0;entryY=0.5;entryDx=0;entryDy=0;" parent="1" source="BE-PEi-hic5o3liknW6_-110" target="BE-PEi-hic5o3liknW6_-132" edge="1">
          <mxGeometry width="160" relative="1" as="geometry">
            <mxPoint x="574" y="103.33333333333326" as="sourcePoint" />
            <mxPoint x="884" y="80" as="targetPoint" />
          </mxGeometry>
        </mxCell>
      </root>
    </mxGraphModel>
  </diagram>
</mxfile>
